<mxfile host="app.diagrams.net" agent="Mozilla/5.0 (Windows NT 10.0; Win64; x64) AppleWebKit/537.36 (KHTML, like Gecko) Chrome/139.0.0.0 Safari/537.36 Edg/139.0.0.0" version="28.1.2">
  <diagram id="6TA1bxCG10VUq53LQCl_" name="Pagina-1">
    <mxGraphModel dx="1034" dy="1747" grid="1" gridSize="10" guides="1" tooltips="1" connect="1" arrows="1" fold="1" page="1" pageScale="1" pageWidth="827" pageHeight="1169" math="0" shadow="0" adaptiveColors="auto">
      <root>
        <mxCell id="0" />
        <mxCell id="1" parent="0" />
        <mxCell id="ehEu_LTq02Jqm6IyUcni-38" value="l1.1: Patient" style="rounded=0;whiteSpace=wrap;html=1;fillColor=#fad7ac;strokeColor=#b46504;" parent="1" vertex="1">
          <mxGeometry x="310" y="170" width="130" height="60" as="geometry" />
        </mxCell>
        <mxCell id="ehEu_LTq02Jqm6IyUcni-39" value="" style="endArrow=classic;html=1;rounded=0;exitX=0;exitY=0;exitDx=85;exitDy=40;exitPerimeter=0;entryX=0.5;entryY=0;entryDx=0;entryDy=0;" parent="1" source="ehEu_LTq02Jqm6IyUcni-51" target="ehEu_LTq02Jqm6IyUcni-38" edge="1">
          <mxGeometry width="50" height="50" relative="1" as="geometry">
            <mxPoint x="380" y="250" as="sourcePoint" />
            <mxPoint x="430" y="200" as="targetPoint" />
          </mxGeometry>
        </mxCell>
        <mxCell id="ehEu_LTq02Jqm6IyUcni-43" value="" style="endArrow=classic;html=1;rounded=0;entryX=0.5;entryY=0;entryDx=0;entryDy=0;" parent="1" source="UiVR0htfBsRFf4U2061H-15" target="UiVR0htfBsRFf4U2061H-23" edge="1">
          <mxGeometry width="50" height="50" relative="1" as="geometry">
            <mxPoint x="240" y="660" as="sourcePoint" />
            <mxPoint x="230" y="640" as="targetPoint" />
          </mxGeometry>
        </mxCell>
        <mxCell id="ehEu_LTq02Jqm6IyUcni-44" value="" style="shape=sumEllipse;perimeter=ellipsePerimeter;whiteSpace=wrap;html=1;backgroundOutline=1;fillColor=#fad9d5;strokeColor=#ae4132;rounded=0;" parent="1" vertex="1">
          <mxGeometry x="360" y="930" width="30" height="30" as="geometry" />
        </mxCell>
        <mxCell id="ehEu_LTq02Jqm6IyUcni-45" value="" style="endArrow=none;dashed=1;html=1;dashPattern=1 3;strokeWidth=2;rounded=0;entryX=1;entryY=0.5;entryDx=0;entryDy=0;entryPerimeter=0;fillColor=#b0e3e6;strokeColor=#0e8088;" parent="1" target="ehEu_LTq02Jqm6IyUcni-51" edge="1">
          <mxGeometry width="50" height="50" relative="1" as="geometry">
            <mxPoint x="720" y="420" as="sourcePoint" />
            <mxPoint x="430" y="100" as="targetPoint" />
            <Array as="points">
              <mxPoint x="720" y="260" />
              <mxPoint x="720" y="100" />
            </Array>
          </mxGeometry>
        </mxCell>
        <mxCell id="ehEu_LTq02Jqm6IyUcni-46" value="" style="endArrow=none;dashed=1;html=1;dashPattern=1 3;strokeWidth=2;rounded=0;exitX=1;exitY=0.5;exitDx=0;exitDy=0;fillColor=#b0e3e6;strokeColor=#0e8088;exitPerimeter=0;" parent="1" source="ehEu_LTq02Jqm6IyUcni-60" edge="1">
          <mxGeometry width="50" height="50" relative="1" as="geometry">
            <mxPoint x="630" y="570" as="sourcePoint" />
            <mxPoint x="720" y="420" as="targetPoint" />
            <Array as="points">
              <mxPoint x="720" y="880" />
            </Array>
          </mxGeometry>
        </mxCell>
        <mxCell id="ehEu_LTq02Jqm6IyUcni-47" value="&amp;lt;&amp;lt;delay&amp;gt;&amp;gt;&lt;br&gt;2 minutes" style="shape=note;whiteSpace=wrap;html=1;backgroundOutline=1;darkOpacity=0.05;size=15;fillColor=#b0e3e6;strokeColor=#0e8088;rounded=0;" parent="1" vertex="1">
          <mxGeometry x="670" y="210" width="90" height="50" as="geometry" />
        </mxCell>
        <mxCell id="ehEu_LTq02Jqm6IyUcni-48" value="&amp;lt;&amp;lt;frequency&amp;gt;&amp;gt;&lt;br&gt;6000 / day" style="shape=note;whiteSpace=wrap;html=1;backgroundOutline=1;darkOpacity=0.05;size=15;fillColor=#d5e8d4;strokeColor=#82b366;rounded=0;" parent="1" vertex="1">
          <mxGeometry x="321.25" y="-10" width="107.5" height="50" as="geometry" />
        </mxCell>
        <mxCell id="ehEu_LTq02Jqm6IyUcni-49" value="" style="endArrow=none;dashed=1;html=1;dashPattern=1 3;strokeWidth=2;rounded=0;entryX=0.5;entryY=1;entryDx=0;entryDy=0;entryPerimeter=0;exitX=0;exitY=0;exitDx=85;exitDy=0;exitPerimeter=0;fillColor=#d5e8d4;strokeColor=#82b366;" parent="1" source="ehEu_LTq02Jqm6IyUcni-51" target="ehEu_LTq02Jqm6IyUcni-48" edge="1">
          <mxGeometry width="50" height="50" relative="1" as="geometry">
            <mxPoint x="380" y="250" as="sourcePoint" />
            <mxPoint x="430" y="200" as="targetPoint" />
            <Array as="points">
              <mxPoint x="375" y="40" />
            </Array>
          </mxGeometry>
        </mxCell>
        <mxCell id="ehEu_LTq02Jqm6IyUcni-50" value="&amp;lt;&amp;lt;complexity&amp;gt;&amp;gt;&lt;br&gt;medium" style="shape=note;whiteSpace=wrap;html=1;backgroundOutline=1;darkOpacity=0.05;size=15;fillColor=#b1ddf0;strokeColor=#10739e;rounded=0;" parent="1" vertex="1">
          <mxGeometry x="150" y="140" width="120" height="50" as="geometry" />
        </mxCell>
        <mxCell id="ehEu_LTq02Jqm6IyUcni-51" value="A1 - Identify On-Call Physician" style="html=1;shape=mxgraph.infographic.ribbonSimple;notch1=20;notch2=0;align=center;verticalAlign=middle;fontSize=14;fontStyle=0;fillColor=#fad9d5;flipH=0;spacingRight=0;spacingLeft=14;whiteSpace=wrap;strokeColor=#ae4132;rounded=0;" parent="1" vertex="1">
          <mxGeometry x="289.38" y="80" width="180" height="40" as="geometry" />
        </mxCell>
        <mxCell id="ehEu_LTq02Jqm6IyUcni-53" value="&amp;lt;&amp;lt;datastore&amp;gt;&amp;gt;&lt;div&gt;l2.1: Address&lt;/div&gt;" style="rounded=0;whiteSpace=wrap;html=1;fillColor=#fad7ac;strokeColor=#b46504;" parent="1" vertex="1">
          <mxGeometry x="10" y="310" width="140" height="60" as="geometry" />
        </mxCell>
        <mxCell id="ehEu_LTq02Jqm6IyUcni-54" value="l2: Address" style="rounded=0;whiteSpace=wrap;html=1;fillColor=#fad7ac;strokeColor=#b46504;" parent="1" vertex="1">
          <mxGeometry x="10" y="400" width="140" height="60" as="geometry" />
        </mxCell>
        <mxCell id="ehEu_LTq02Jqm6IyUcni-55" value="" style="endArrow=classic;html=1;rounded=0;exitX=0.5;exitY=1;exitDx=0;exitDy=0;entryX=0.5;entryY=0;entryDx=0;entryDy=0;" parent="1" source="ehEu_LTq02Jqm6IyUcni-53" target="ehEu_LTq02Jqm6IyUcni-54" edge="1">
          <mxGeometry width="50" height="50" relative="1" as="geometry">
            <mxPoint x="380" y="400" as="sourcePoint" />
            <mxPoint x="430" y="350" as="targetPoint" />
          </mxGeometry>
        </mxCell>
        <mxCell id="ehEu_LTq02Jqm6IyUcni-56" value="" style="endArrow=classic;html=1;rounded=0;entryX=0;entryY=0.5;entryDx=0;entryDy=0;" parent="1" edge="1">
          <mxGeometry width="50" height="50" relative="1" as="geometry">
            <mxPoint x="150" y="430" as="sourcePoint" />
            <mxPoint x="170" y="430" as="targetPoint" />
          </mxGeometry>
        </mxCell>
        <mxCell id="ehEu_LTq02Jqm6IyUcni-57" value="" style="html=1;points=[];perimeter=orthogonalPerimeter;fillColor=strokeColor;rotation=90;rounded=0;" parent="1" vertex="1">
          <mxGeometry x="372.5" y="190" width="5" height="360" as="geometry" />
        </mxCell>
        <mxCell id="ehEu_LTq02Jqm6IyUcni-60" value="A3 - Notify On-Call Physician &lt;br&gt;with Patient Info" style="html=1;shadow=0;dashed=0;align=center;verticalAlign=middle;shape=mxgraph.arrows2.arrow;dy=0;dx=10;notch=0;fillColor=#fad9d5;strokeColor=#ae4132;rounded=0;" parent="1" vertex="1">
          <mxGeometry x="305" y="860" width="164.38" height="40" as="geometry" />
        </mxCell>
        <mxCell id="ehEu_LTq02Jqm6IyUcni-61" value="" style="endArrow=classic;html=1;rounded=0;exitX=0;exitY=0;exitDx=70;exitDy=40;entryX=0.5;entryY=0;entryDx=0;entryDy=0;exitPerimeter=0;" parent="1" source="ehEu_LTq02Jqm6IyUcni-60" target="ehEu_LTq02Jqm6IyUcni-44" edge="1">
          <mxGeometry width="50" height="50" relative="1" as="geometry">
            <mxPoint x="340" y="790" as="sourcePoint" />
            <mxPoint x="340" y="830" as="targetPoint" />
          </mxGeometry>
        </mxCell>
        <mxCell id="ehEu_LTq02Jqm6IyUcni-62" value="" style="endArrow=classic;html=1;rounded=0;entryX=0.5;entryY=0;entryDx=0;entryDy=0;" parent="1" target="UiVR0htfBsRFf4U2061H-1" edge="1">
          <mxGeometry width="50" height="50" relative="1" as="geometry">
            <mxPoint x="240" y="370" as="sourcePoint" />
            <mxPoint x="240" y="410" as="targetPoint" />
          </mxGeometry>
        </mxCell>
        <mxCell id="ehEu_LTq02Jqm6IyUcni-63" value="&amp;lt;&amp;lt;datastore&amp;gt;&amp;gt;&lt;div&gt;l5.1: Medical Record&lt;/div&gt;" style="rounded=0;whiteSpace=wrap;html=1;fillColor=#fad7ac;strokeColor=#b46504;" parent="1" vertex="1">
          <mxGeometry x="570" y="400" width="140" height="60" as="geometry" />
        </mxCell>
        <mxCell id="ehEu_LTq02Jqm6IyUcni-64" value="" style="endArrow=classic;html=1;rounded=0;exitX=0;exitY=0.5;exitDx=0;exitDy=0;entryX=1;entryY=0.5;entryDx=0;entryDy=0;" parent="1" source="ehEu_LTq02Jqm6IyUcni-69" target="UiVR0htfBsRFf4U2061H-2" edge="1">
          <mxGeometry width="50" height="50" relative="1" as="geometry">
            <mxPoint x="560" y="510" as="sourcePoint" />
            <mxPoint x="540" y="530" as="targetPoint" />
          </mxGeometry>
        </mxCell>
        <mxCell id="ehEu_LTq02Jqm6IyUcni-65" value="" style="endArrow=classic;html=1;rounded=0;exitX=0.5;exitY=1;exitDx=0;exitDy=0;entryX=1;entryY=0.5;entryDx=0;entryDy=0;" parent="1" source="UiVR0htfBsRFf4U2061H-2" target="UiVR0htfBsRFf4U2061H-15" edge="1">
          <mxGeometry width="50" height="50" relative="1" as="geometry">
            <mxPoint x="620" y="450" as="sourcePoint" />
            <mxPoint x="480" y="700" as="targetPoint" />
            <Array as="points">
              <mxPoint x="480" y="750" />
            </Array>
          </mxGeometry>
        </mxCell>
        <mxCell id="ehEu_LTq02Jqm6IyUcni-68" value="" style="endArrow=classic;html=1;rounded=0;exitX=0.5;exitY=1;exitDx=0;exitDy=0;entryX=0.5;entryY=0;entryDx=0;entryDy=0;" parent="1" source="ehEu_LTq02Jqm6IyUcni-63" target="ehEu_LTq02Jqm6IyUcni-69" edge="1">
          <mxGeometry width="50" height="50" relative="1" as="geometry">
            <mxPoint x="480" y="570" as="sourcePoint" />
            <mxPoint x="480" y="720" as="targetPoint" />
          </mxGeometry>
        </mxCell>
        <mxCell id="ehEu_LTq02Jqm6IyUcni-69" value="l5: Medical Record" style="rounded=0;whiteSpace=wrap;html=1;fillColor=#fad7ac;strokeColor=#b46504;" parent="1" vertex="1">
          <mxGeometry x="570" y="500" width="140" height="60" as="geometry" />
        </mxCell>
        <mxCell id="ehEu_LTq02Jqm6IyUcni-72" value="" style="endArrow=classic;html=1;rounded=0;entryX=0.5;entryY=0;entryDx=0;entryDy=0;" parent="1" target="UiVR0htfBsRFf4U2061H-2" edge="1">
          <mxGeometry width="50" height="50" relative="1" as="geometry">
            <mxPoint x="480" y="370" as="sourcePoint" />
            <mxPoint x="480" y="410" as="targetPoint" />
          </mxGeometry>
        </mxCell>
        <mxCell id="ehEu_LTq02Jqm6IyUcni-75" value="l1.2: Anomaly" style="rounded=0;whiteSpace=wrap;html=1;fillColor=#fad7ac;strokeColor=#b46504;" parent="1" vertex="1">
          <mxGeometry x="310" y="270" width="130" height="60" as="geometry" />
        </mxCell>
        <mxCell id="ehEu_LTq02Jqm6IyUcni-76" value="" style="endArrow=classic;html=1;rounded=0;exitX=0.5;exitY=1;exitDx=0;exitDy=0;entryX=0.5;entryY=0;entryDx=0;entryDy=0;" parent="1" source="ehEu_LTq02Jqm6IyUcni-38" target="ehEu_LTq02Jqm6IyUcni-75" edge="1">
          <mxGeometry width="50" height="50" relative="1" as="geometry">
            <mxPoint x="370" y="250" as="sourcePoint" />
            <mxPoint x="371" y="300" as="targetPoint" />
          </mxGeometry>
        </mxCell>
        <mxCell id="ehEu_LTq02Jqm6IyUcni-77" value="" style="endArrow=classic;html=1;rounded=0;exitX=0.5;exitY=1;exitDx=0;exitDy=0;entryX=0.46;entryY=0.498;entryDx=0;entryDy=0;entryPerimeter=0;" parent="1" source="ehEu_LTq02Jqm6IyUcni-75" target="ehEu_LTq02Jqm6IyUcni-57" edge="1">
          <mxGeometry width="50" height="50" relative="1" as="geometry">
            <mxPoint x="240" y="340" as="sourcePoint" />
            <mxPoint x="241" y="390" as="targetPoint" />
          </mxGeometry>
        </mxCell>
        <mxCell id="UiVR0htfBsRFf4U2061H-1" value="A2: Get Patient Address" style="rounded=1;whiteSpace=wrap;html=1;fillColor=#f8cecc;strokeColor=#b85450;" parent="1" vertex="1">
          <mxGeometry x="170" y="400" width="140" height="60" as="geometry" />
        </mxCell>
        <mxCell id="UiVR0htfBsRFf4U2061H-2" value="A5: Get Patient Medical Record" style="rounded=1;whiteSpace=wrap;html=1;fillColor=#f8cecc;strokeColor=#b85450;" parent="1" vertex="1">
          <mxGeometry x="410" y="500" width="140" height="60" as="geometry" />
        </mxCell>
        <mxCell id="UiVR0htfBsRFf4U2061H-9" value="&amp;lt;&amp;lt;datastore&amp;gt;&amp;gt;&lt;div&gt;l3.1:&amp;nbsp;&lt;span style=&quot;background-color: transparent; color: light-dark(rgb(0, 0, 0), rgb(255, 255, 255));&quot;&gt;Healthcare Facility&lt;/span&gt;&lt;/div&gt;" style="rounded=0;whiteSpace=wrap;html=1;fillColor=#fad7ac;strokeColor=#b46504;" parent="1" vertex="1">
          <mxGeometry x="10" y="470" width="140" height="60" as="geometry" />
        </mxCell>
        <mxCell id="UiVR0htfBsRFf4U2061H-10" value="l3: Healthcare Facility" style="rounded=0;whiteSpace=wrap;html=1;fillColor=#fad7ac;strokeColor=#b46504;" parent="1" vertex="1">
          <mxGeometry x="10" y="570" width="140" height="60" as="geometry" />
        </mxCell>
        <mxCell id="UiVR0htfBsRFf4U2061H-11" value="" style="endArrow=classic;html=1;rounded=0;exitX=0.5;exitY=1;exitDx=0;exitDy=0;entryX=0.5;entryY=0;entryDx=0;entryDy=0;" parent="1" edge="1">
          <mxGeometry width="50" height="50" relative="1" as="geometry">
            <mxPoint x="80" y="530" as="sourcePoint" />
            <mxPoint x="80" y="570" as="targetPoint" />
          </mxGeometry>
        </mxCell>
        <mxCell id="UiVR0htfBsRFf4U2061H-12" value="" style="endArrow=classic;html=1;rounded=0;entryX=0;entryY=0.5;entryDx=0;entryDy=0;" parent="1" edge="1">
          <mxGeometry width="50" height="50" relative="1" as="geometry">
            <mxPoint x="150" y="600" as="sourcePoint" />
            <mxPoint x="170" y="600" as="targetPoint" />
          </mxGeometry>
        </mxCell>
        <mxCell id="UiVR0htfBsRFf4U2061H-13" value="" style="endArrow=classic;html=1;rounded=0;exitX=0.5;exitY=1;exitDx=0;exitDy=0;" parent="1" source="UiVR0htfBsRFf4U2061H-1" edge="1">
          <mxGeometry width="50" height="50" relative="1" as="geometry">
            <mxPoint x="240" y="530" as="sourcePoint" />
            <mxPoint x="240" y="570" as="targetPoint" />
          </mxGeometry>
        </mxCell>
        <mxCell id="UiVR0htfBsRFf4U2061H-14" value="A3: Get Nearest Healthcare Facility" style="rounded=1;whiteSpace=wrap;html=1;fillColor=#f8cecc;strokeColor=#b85450;" parent="1" vertex="1">
          <mxGeometry x="170" y="570" width="140" height="60" as="geometry" />
        </mxCell>
        <mxCell id="UiVR0htfBsRFf4U2061H-15" value="" style="rhombus;whiteSpace=wrap;html=1;" parent="1" vertex="1">
          <mxGeometry x="355" y="730" width="40" height="40" as="geometry" />
        </mxCell>
        <mxCell id="UiVR0htfBsRFf4U2061H-16" value="&amp;lt;&amp;lt;datastore&amp;gt;&amp;gt;&lt;div&gt;l4.1:&amp;nbsp;&lt;span style=&quot;background-color: transparent; color: light-dark(rgb(0, 0, 0), rgb(255, 255, 255));&quot;&gt;On-Call Physician&lt;/span&gt;&lt;/div&gt;" style="rounded=0;whiteSpace=wrap;html=1;fillColor=#fad7ac;strokeColor=#b46504;" parent="1" vertex="1">
          <mxGeometry x="10" y="770" width="140" height="60" as="geometry" />
        </mxCell>
        <mxCell id="UiVR0htfBsRFf4U2061H-17" value="l4: On-Call Physician" style="rounded=0;whiteSpace=wrap;html=1;fillColor=#fad7ac;strokeColor=#b46504;" parent="1" vertex="1">
          <mxGeometry x="10" y="670" width="140" height="60" as="geometry" />
        </mxCell>
        <mxCell id="UiVR0htfBsRFf4U2061H-18" value="" style="endArrow=classic;html=1;rounded=0;exitX=0.5;exitY=0;exitDx=0;exitDy=0;entryX=0.5;entryY=1;entryDx=0;entryDy=0;" parent="1" source="UiVR0htfBsRFf4U2061H-16" target="UiVR0htfBsRFf4U2061H-17" edge="1">
          <mxGeometry width="50" height="50" relative="1" as="geometry">
            <mxPoint x="80" y="700" as="sourcePoint" />
            <mxPoint x="80" y="810" as="targetPoint" />
          </mxGeometry>
        </mxCell>
        <mxCell id="UiVR0htfBsRFf4U2061H-19" value="" style="endArrow=classic;html=1;rounded=0;entryX=0;entryY=0.5;entryDx=0;entryDy=0;exitX=1;exitY=0.5;exitDx=0;exitDy=0;" parent="1" source="UiVR0htfBsRFf4U2061H-17" target="UiVR0htfBsRFf4U2061H-20" edge="1">
          <mxGeometry width="50" height="50" relative="1" as="geometry">
            <mxPoint x="150" y="770" as="sourcePoint" />
            <mxPoint x="170" y="770" as="targetPoint" />
          </mxGeometry>
        </mxCell>
        <mxCell id="UiVR0htfBsRFf4U2061H-20" value="A4: Get Avaiable On-Call Physician" style="rounded=1;whiteSpace=wrap;html=1;fillColor=#f8cecc;strokeColor=#b85450;" parent="1" vertex="1">
          <mxGeometry x="170" y="670" width="140" height="60" as="geometry" />
        </mxCell>
        <mxCell id="UiVR0htfBsRFf4U2061H-21" value="" style="endArrow=classic;html=1;rounded=0;exitX=0.5;exitY=1;exitDx=0;exitDy=0;entryX=0.5;entryY=0;entryDx=0;entryDy=0;" parent="1" source="UiVR0htfBsRFf4U2061H-14" target="UiVR0htfBsRFf4U2061H-20" edge="1">
          <mxGeometry width="50" height="50" relative="1" as="geometry">
            <mxPoint x="200" y="810" as="sourcePoint" />
            <mxPoint x="200" y="920" as="targetPoint" />
          </mxGeometry>
        </mxCell>
        <mxCell id="UiVR0htfBsRFf4U2061H-22" value="" style="endArrow=classic;html=1;rounded=0;exitX=0.5;exitY=1;exitDx=0;exitDy=0;entryX=0;entryY=0.5;entryDx=0;entryDy=0;" parent="1" source="UiVR0htfBsRFf4U2061H-20" target="UiVR0htfBsRFf4U2061H-15" edge="1">
          <mxGeometry width="50" height="50" relative="1" as="geometry">
            <mxPoint x="190" y="790" as="sourcePoint" />
            <mxPoint x="190" y="900" as="targetPoint" />
            <Array as="points">
              <mxPoint x="240" y="750" />
            </Array>
          </mxGeometry>
        </mxCell>
        <mxCell id="UiVR0htfBsRFf4U2061H-23" value="l1: Anomaly Alert" style="rounded=0;whiteSpace=wrap;html=1;fillColor=#fad7ac;strokeColor=#b46504;" parent="1" vertex="1">
          <mxGeometry x="310" y="780" width="130" height="60" as="geometry" />
        </mxCell>
        <mxCell id="UiVR0htfBsRFf4U2061H-24" value="" style="endArrow=classic;html=1;rounded=0;entryX=0;entryY=0;entryDx=70;entryDy=0;exitX=0.5;exitY=1;exitDx=0;exitDy=0;entryPerimeter=0;" parent="1" source="UiVR0htfBsRFf4U2061H-23" target="ehEu_LTq02Jqm6IyUcni-60" edge="1">
          <mxGeometry width="50" height="50" relative="1" as="geometry">
            <mxPoint x="490" y="820" as="sourcePoint" />
            <mxPoint x="490" y="830" as="targetPoint" />
          </mxGeometry>
        </mxCell>
        <mxCell id="g_y9jzFfGcLNLJTsL9AF-1" value="" style="strokeWidth=2;html=1;shape=mxgraph.flowchart.start_2;whiteSpace=wrap;fillColor=#f8cecc;strokeColor=#b85450;" vertex="1" parent="1">
          <mxGeometry x="240" y="85" width="30.62" height="30" as="geometry" />
        </mxCell>
        <mxCell id="g_y9jzFfGcLNLJTsL9AF-2" value="" style="endArrow=classic;html=1;rounded=0;exitX=1;exitY=0.5;exitDx=0;exitDy=0;exitPerimeter=0;entryX=0;entryY=0;entryDx=20;entryDy=20;entryPerimeter=0;" edge="1" parent="1" source="g_y9jzFfGcLNLJTsL9AF-1">
          <mxGeometry width="50" height="50" relative="1" as="geometry">
            <mxPoint x="225.62" y="90" as="sourcePoint" />
            <mxPoint x="310" y="100" as="targetPoint" />
          </mxGeometry>
        </mxCell>
      </root>
    </mxGraphModel>
  </diagram>
</mxfile>
